<?xml version="1.0" encoding="UTF-8" standalone="no"?>
<!-- Generator: Adobe Illustrator 19.0.0, SVG Export Plug-In . SVG Version: 6.00 Build 0)  -->

<svg
   version="1.1"
   id="Capa_1"
   x="0px"
   y="0px"
   viewBox="0 0 50 50"
   xml:space="preserve"
   sodipodi:docname="Icon.svg"
   inkscape:version="1.4 (86a8ad7, 2024-10-11)"
   width="50"
   height="50"
   inkscape:export-filename="Icon.png"
   inkscape:export-xdpi="122.88"
   inkscape:export-ydpi="122.88"
   xmlns:inkscape="http://www.inkscape.org/namespaces/inkscape"
   xmlns:sodipodi="http://sodipodi.sourceforge.net/DTD/sodipodi-0.dtd"
   xmlns="http://www.w3.org/2000/svg"
   xmlns:svg="http://www.w3.org/2000/svg"><defs
   id="defs59" /><sodipodi:namedview
   id="namedview57"
   pagecolor="#ffffff"
   bordercolor="#000000"
   borderopacity="0.25"
   inkscape:showpageshadow="2"
   inkscape:pageopacity="0.0"
   inkscape:pagecheckerboard="0"
   inkscape:deskcolor="#d1d1d1"
   showgrid="false"
   inkscape:zoom="15.568799"
   inkscape:cx="7.4507995"
   inkscape:cy="24.6326"
   inkscape:window-width="2560"
   inkscape:window-height="1361"
   inkscape:window-x="-9"
   inkscape:window-y="382"
   inkscape:window-maximized="1"
   inkscape:current-layer="Capa_1"
   inkscape:export-bgcolor="#ffffff00" />












<g
   id="g26"
   transform="translate(-4,-9.1867576)">
</g>
<g
   id="g28"
   transform="translate(-4,-9.1867576)">
</g>
<g
   id="g30"
   transform="translate(-4,-9.1867576)">
</g>
<g
   id="g32"
   transform="translate(-4,-9.1867576)">
</g>
<g
   id="g34"
   transform="translate(-4,-9.1867576)">
</g>
<g
   id="g36"
   transform="translate(-4,-9.1867576)">
</g>
<g
   id="g38"
   transform="translate(-4,-9.1867576)">
</g>
<g
   id="g40"
   transform="translate(-4,-9.1867576)">
</g>
<g
   id="g42"
   transform="translate(-4,-9.1867576)">
</g>
<g
   id="g44"
   transform="translate(-4,-9.1867576)">
</g>
<g
   id="g46"
   transform="translate(-4,-9.1867576)">
</g>
<g
   id="g48"
   transform="translate(-4,-9.1867576)">
</g>
<g
   id="g50"
   transform="translate(-4,-9.1867576)">
</g>
<g
   id="g52"
   transform="translate(-4,-9.1867576)">
</g>
<g
   id="g54"
   transform="translate(-4,-9.1867576)">
</g>
<g
   id="g1"
   transform="translate(0,1.5262304)"><line
     style="fill:none;stroke:#be6e41;stroke-width:3.47478;stroke-linecap:round;stroke-miterlimit:10;stroke-dasharray:none;stroke-opacity:1"
     x1="25"
     y1="1.73739"
     x2="25"
     y2="37.959759"
     id="line1005" /><g
     id="g4739"
     transform="translate(-4,-9.5079127)"><circle
       style="fill:#6c4127;stroke-width:0.928572"
       cx="8.25"
       cy="53.205452"
       r="3.25"
       id="circle4" /><circle
       style="fill:#be6e41;stroke-width:0.928572"
       cx="15.166667"
       cy="53.205452"
       r="3.25"
       id="circle6" /><circle
       style="fill:#6c4127;stroke-width:0.928572"
       cx="22.083334"
       cy="53.205452"
       r="3.25"
       id="circle8" /><circle
       style="fill:#be6e41;stroke-width:0.928572"
       cx="29"
       cy="53.205452"
       r="3.25"
       id="circle10" /><circle
       style="fill:#6c4127;stroke-width:0.928572"
       cx="35.916668"
       cy="53.205452"
       r="3.25"
       id="circle12" /><circle
       style="fill:#be6e41;stroke-width:0.928572"
       cx="42.833332"
       cy="53.205452"
       r="3.25"
       id="circle14" /><circle
       style="fill:#6c4127;stroke-width:0.928572"
       cx="49.75"
       cy="53.205452"
       r="3.25"
       id="circle16" /></g><line
     style="fill:none;stroke:#6c4127;stroke-width:2;stroke-linecap:round;stroke-miterlimit:10;stroke-opacity:1"
     x1="1"
     y1="38.813244"
     x2="49"
     y2="38.813244"
     id="line24" /><path
     id="path22"
     style="fill:#f2ecbf"
     d="m 15.012391,4.8132424 c -0.962999,0 -1.625297,0.965235 -1.279297,1.865234 l 0.002,0.0078 c 2.754997,7.1619926 2.754997,18.0919126 0,25.2539056 l -0.002,0.0078 c -0.346,0.900025 0.315298,1.86526 1.279297,1.86526 h 9.998047 V 4.8132424 Z" /><path
     id="path4624"
     style="fill:#f2ecbf"
     d="m 34.987608,4.8132424 c 0.963,0 1.625298,0.965235 1.279297,1.865234 l -0.002,0.0078 c -2.754997,7.1619926 -2.754997,18.0919126 0,25.2539056 l 0.002,0.0078 c 0.346,0.900025 -0.315297,1.86526 -1.279297,1.86526 H 24.989561 V 4.8132424 Z" /></g></svg>
